<svg width="50" height="50" viewBox="0 0 50 50" fill="none" xmlns="http://www.w3.org/2000/svg">
<path fill-rule="evenodd" clip-rule="evenodd" d="M8.07825 0C3.61802 0 0 3.60751 0 8.06038V50H2.17645V26.116H23.8827V41.9396C23.8827 46.3925 27.5007 50 31.9609 50H50V32.0025C50 27.5496 46.382 23.9421 41.9217 23.9421H26.0591V2.17391H50V0H8.07825ZM23.8827 23.9421H2.17645V8.06038C2.17645 4.81062 4.81751 2.17391 8.07825 2.17391H23.8827V23.9421ZM26.0591 41.9396V26.116H41.9217C45.1824 26.116 47.8236 28.7527 47.8236 32.0025V47.8261H31.9609C28.7002 47.8261 26.0591 45.1894 26.0591 41.9396Z" fill="black"/>
</svg>
