<svg width="53" height="53" viewBox="0 0 53 53" fill="none" xmlns="http://www.w3.org/2000/svg">
<g clip-path="url(#clip0_5_154)">
<path d="M26.5016 52.765C41.0723 52.765 52.8841 40.9531 52.8841 26.3825C52.8841 11.8118 41.0723 0 26.5016 0C11.931 0 0.119141 11.8118 0.119141 26.3825C0.119141 40.9531 11.931 52.765 26.5016 52.765Z" fill="url(#paint0_linear_5_154)"/>
<path fill-rule="evenodd" clip-rule="evenodd" d="M12.0614 26.104C19.7524 22.7531 24.881 20.544 27.4471 19.4767C34.7738 16.4293 36.2962 15.8999 37.2885 15.8824C37.5067 15.8786 37.9947 15.9327 38.3108 16.1892C38.5777 16.4057 38.6511 16.6983 38.6863 16.9036C38.7214 17.109 38.7652 17.5767 38.7304 17.9422C38.3334 22.1139 36.6154 32.2375 35.7414 36.9099C35.3716 38.8869 34.6434 39.5498 33.9384 39.6147C32.4063 39.7557 31.2429 38.6022 29.759 37.6295C27.437 36.1074 26.1252 35.1599 23.8713 33.6746C21.2665 31.9581 22.9551 31.0147 24.4396 29.4728C24.8281 29.0693 31.5784 22.9293 31.7091 22.3724C31.7254 22.3027 31.7406 22.043 31.5863 21.9059C31.4321 21.7688 31.2044 21.8157 31.0401 21.853C30.8072 21.9058 27.0978 24.3576 19.9118 29.2084C18.8589 29.9314 17.9052 30.2836 17.0507 30.2652C16.1087 30.2448 14.2967 29.7326 12.9497 29.2947C11.2975 28.7576 9.98434 28.4737 10.0987 27.5616C10.1582 27.0865 10.8125 26.6006 12.0614 26.104Z" fill="white"/>
</g>
<defs>
<linearGradient id="paint0_linear_5_154" x1="26.5016" y1="0" x2="26.5016" y2="52.3736" gradientUnits="userSpaceOnUse">
<stop/>
<stop offset="1"/>
</linearGradient>
<clipPath id="clip0_5_154">
<rect width="52.765" height="52.765" fill="white" transform="translate(0.119141)"/>
</clipPath>
</defs>
</svg>
