<svg width="54" height="53" viewBox="0 0 54 53" fill="none" xmlns="http://www.w3.org/2000/svg">
<g clip-path="url(#clip0_5_152)">
<path d="M0.589355 25.3272C0.589355 13.3878 0.589355 7.41816 4.29844 3.70908C8.00752 0 13.9771 0 25.9165 0H28.0271C39.9665 0 45.9361 0 49.6453 3.70908C53.3543 7.41816 53.3543 13.3878 53.3543 25.3272V27.4378C53.3543 39.3772 53.3543 45.3468 49.6453 49.0559C45.9361 52.765 39.9665 52.765 28.0271 52.765H25.9165C13.9771 52.765 8.00752 52.765 4.29844 49.0559C0.589355 45.3468 0.589355 39.3772 0.589355 27.4378V25.3272Z" fill="black"/>
<path d="M28.5741 37.9908C16.3152 37.9908 9.32308 29.672 9.03174 15.8295H15.1724C15.3741 25.9895 19.901 30.2931 23.4868 31.1804V15.8295H29.2691V24.5919C32.81 24.2148 36.5298 20.2218 37.7849 15.8295H43.567C42.6034 21.2422 38.5694 25.2353 35.7007 26.8768C38.5694 28.2078 43.1639 31.6907 44.9119 37.9908H38.5469C37.1799 33.7759 33.7737 30.5149 29.2691 30.0713V37.9908H28.5741Z" fill="white"/>
</g>
<defs>
<clipPath id="clip0_5_152">
<rect width="52.765" height="52.765" fill="white" transform="translate(0.589355)"/>
</clipPath>
</defs>
</svg>
